<?xml version="1.0" encoding="UTF-8"?>
<svg xmlns="http://www.w3.org/2000/svg" width="512" height="512" viewBox="0 0 512 512" role="img" aria-label="LooksMax Espana">
  <defs>
    <linearGradient id="gold" x1="0%" y1="0%" x2="100%" y2="100%">
      <stop offset="0%" stop-color="#e8b84b" />
      <stop offset="100%" stop-color="#c8960a" />
    </linearGradient>
    <filter id="glow" x="-25%" y="-25%" width="150%" height="150%">
      <feDropShadow dx="0" dy="0" stdDeviation="14" flood-color="#e8b84b" flood-opacity="0.35" />
    </filter>
  </defs>
  <rect width="512" height="512" rx="154" fill="url(#gold)" filter="url(#glow)" />
  <g
    fill="none"
    stroke="#000"
    stroke-width="2"
    stroke-linecap="round"
    stroke-linejoin="round"
    transform="translate(115 115) scale(11.75)"
  >
    <path d="M11.562 3.266a.5.5 0 0 1 .876 0L15.39 8.87a1 1 0 0 0 1.516.294L21.183 5.5a.5.5 0 0 1 .798.519l-2.834 10.246a1 1 0 0 1-.956.734H5.81a1 1 0 0 1-.957-.734L2.02 6.02a.5.5 0 0 1 .798-.519l4.276 3.664a1 1 0 0 0 1.516-.294z" />
    <path d="M5 21h14" />
  </g>
</svg>
